<svg width="34" height="31" viewBox="0 0 34 31" fill="none" xmlns="http://www.w3.org/2000/svg">
<path d="M31.6949 5.80234H24.1485V4.01489C24.1485 1.81495 22.3648 0.0274993 20.142 0H13.8305C11.6352 0 9.85149 1.78745 9.85149 4.01489V5.80234H2.27764C1.01533 5.80234 0 6.81981 0 8.08478V13.8321H5.4883C5.54318 13.2271 6.06457 12.7597 6.66828 12.7597H8.23244C8.83616 12.7597 9.35755 13.2271 9.41243 13.8321H24.5327C24.5876 13.2271 25.109 12.7597 25.7127 12.7597H27.2768C27.8805 12.7597 28.4019 13.2271 28.4568 13.8321H33.9177V8.08478C33.9726 6.81981 32.9572 5.80234 31.6949 5.80234ZM21.816 5.80234H12.1566V4.01489C12.1566 3.07992 12.8975 2.33744 13.8305 2.33744H20.1695C21.1025 2.33744 21.8434 3.07992 21.8434 4.01489L21.816 5.80234Z" fill="#97D700"/>
<path d="M27.3043 17.8469H25.7401C25.1364 17.8469 24.615 17.3794 24.5601 16.7744H9.43989C9.35757 17.3794 8.86362 17.8469 8.25991 17.8469H6.69574C6.09203 17.8469 5.57064 17.3794 5.51576 16.7744H0.0274658V28.1866C0.0274658 29.4516 1.0428 30.469 2.30511 30.469H31.7224C32.9847 30.469 34 29.4516 34 28.1866V16.7744H28.5117C28.4294 17.3519 27.9354 17.8469 27.3043 17.8469Z" fill="#C1E766"/>
</svg>
