<svg width="60" height="60" viewBox="0 0 60 60" fill="none" xmlns="http://www.w3.org/2000/svg">
<g id="ic_Substract">
<path id="Path" opacity="0.6" d="M38.3336 40.7141V51.4284C38.3336 53.4009 36.7346 54.9998 34.7621 54.9998H8.57167C6.59923 54.9998 5.00024 53.4009 5.00024 51.4284V25.2379C5.00024 23.2655 6.59923 21.6665 8.57167 21.6665H19.286V34.7617C19.286 38.0492 21.9509 40.7141 25.2383 40.7141H38.3336Z" fill="#97D700"/>
<path id="Path_2" fill-rule="evenodd" clip-rule="evenodd" d="M25.2379 4.99988H51.4284C53.4009 4.99988 54.9998 6.59886 54.9998 8.57131V34.7618C54.9998 36.7342 53.4009 38.3332 51.4284 38.3332H25.2379C23.2655 38.3332 21.6665 36.7342 21.6665 34.7618V8.57131C21.6665 6.59886 23.2655 4.99988 25.2379 4.99988Z" fill="#97D700"/>
</g>
</svg>
