<svg width="40" height="40" viewBox="0 0 40 40" fill="none" xmlns="http://www.w3.org/2000/svg">
<path fill-rule="evenodd" clip-rule="evenodd" d="M6.5081 27.8721V9.73682C4.6968 10.1037 3.3335 11.7016 3.3335 13.6173V34.2076C3.3335 34.7294 3.83046 35.1086 4.33513 34.9719C5.5796 34.6346 7.84067 33.9446 9.58284 33.4129C10.6975 33.0727 11.5998 32.7974 11.8874 32.7207C13.4427 32.3064 14.9231 32.0524 16.768 31.9272C14.4434 30.808 11.8262 30.2479 8.88905 30.2479C7.57409 30.2479 6.5081 29.1842 6.5081 27.8721ZM33.4922 9.73682V27.8721C33.4922 29.1842 32.4262 30.2479 31.1113 30.2479C28.1991 30.2479 25.5866 30.808 23.2468 31.9282C25.085 32.0537 26.5616 32.3075 28.1129 32.7207C28.4006 32.7974 29.3028 33.0727 30.4175 33.4129C32.1596 33.9446 34.4207 34.6346 35.6652 34.9719C36.1699 35.1086 36.6668 34.7294 36.6668 34.2076V13.6173C36.6668 11.7016 35.3035 10.1037 33.4922 9.73682Z" fill="#97D700" fill-opacity="0.6"/>
<path fill-rule="evenodd" clip-rule="evenodd" d="M19.2063 31.8399C16.2442 29.9504 12.811 29.005 8.88887 29.005C8.45054 29.005 8.09521 28.6467 8.09521 28.2048V5.80017C8.09521 5.35825 8.45054 5 8.88887 5C12.7582 5 16.202 5.85509 19.2063 7.56703V31.8399ZM20.7936 7.57508C23.8301 5.85811 27.2738 5 31.1111 5C31.5494 5 31.9047 5.35825 31.9047 5.80017V28.2048C31.9047 28.6467 31.5494 29.005 31.1111 29.005C27.2187 29.005 23.7854 29.9509 20.7936 31.8421V7.57508Z" fill="#97D700"/>
</svg>
