<svg width="27" height="27" viewBox="0 0 27 27" fill="none" xmlns="http://www.w3.org/2000/svg">
<circle cx="13.5002" cy="13.5" r="10.1932" transform="rotate(24 13.5002 13.5)" fill="white" stroke="white"/>
<path d="M18.4842 5.18314C16.8543 4.20376 14.9722 3.72543 13.0724 3.80771C11.1726 3.89 9.339 4.52925 7.79981 5.6459L10.2382 9.00704C11.1181 8.36875 12.1662 8.00335 13.2521 7.95632C14.338 7.90928 15.4138 8.1827 16.3455 8.74252L18.4842 5.18314Z" fill="#D77EE6"/>
<path d="M7.94025 5.55979C6.55199 6.53186 5.44286 7.85092 4.72347 9.3854C4.00408 10.9199 3.69957 12.6162 3.84033 14.3051L7.97847 13.9602C7.89802 12.9948 8.07207 12.0252 8.48328 11.1481C8.89449 10.2709 9.52848 9.51696 10.322 8.96131L7.94025 5.55979Z" fill="#7E82E6"/>
<path d="M3.83048 14.1761C3.9487 15.8667 4.50811 17.4968 5.4529 18.9038C6.3977 20.3107 7.69486 21.4454 9.21502 22.1946L11.0507 18.4699C10.1818 18.0416 9.4403 17.393 8.90024 16.5888C8.36019 15.7846 8.04043 14.8528 7.97286 13.8864L3.83048 14.1761Z" fill="#7EC7E6"/>
<path d="M8.94966 22.0585C10.446 22.8542 12.1249 23.2436 13.8187 23.1879C15.5125 23.1323 17.1622 22.6335 18.6031 21.7413L16.4171 18.2108C15.5935 18.7208 14.6505 19.0059 13.6823 19.0377C12.7141 19.0695 11.7545 18.8469 10.8991 18.3921L8.94966 22.0585Z" fill="#7EE6A7"/>
<path d="M18.4928 21.8087C19.9455 20.9358 21.1439 19.6974 21.9686 18.2168C22.7933 16.7362 23.2154 15.0653 23.1928 13.3707L19.0407 13.4261C19.0536 14.3948 18.8123 15.3499 18.3409 16.1962C17.8695 17.0425 17.1845 17.7504 16.3541 18.2493L18.4928 21.8087Z" fill="#E4E67E"/>
<path d="M23.1932 13.5C23.1932 11.8052 22.7488 10.1401 21.9045 8.67066C21.0601 7.20122 19.8453 5.97884 18.3811 5.12543L16.2901 8.71301C17.127 9.20083 17.8214 9.89955 18.3041 10.7395C18.7867 11.5794 19.0407 12.5312 19.0407 13.5H23.1932Z" fill="#E67E90"/>
<path d="M18.8479 8.88558C18.8479 8.51108 18.702 8.15899 18.4371 7.89418C18.1722 7.62935 17.82 7.48352 17.4455 7.48352C17.0709 7.48352 16.7187 7.62935 16.4538 7.89415L13.5421 10.8049C13.4062 10.6717 13.2269 10.5982 13.0364 10.5982C12.8433 10.5982 12.6618 10.6734 12.5253 10.8098C12.3888 10.9464 12.3137 11.1278 12.3137 11.3208C12.3137 11.5114 12.3872 11.6906 12.5204 11.8263L10.0024 14.3439C10.0014 14.3448 10.0003 14.3456 9.99939 14.3466L9.15776 15.1883C8.89311 15.4527 8.75294 15.8159 8.77316 16.1846C8.77985 16.3091 8.76068 16.4306 8.71592 16.5464C8.67187 16.6613 8.6054 16.7637 8.51832 16.8508L8.18843 17.1806C7.92196 17.4473 7.91636 17.8794 8.17598 18.1438C8.30448 18.2746 8.47604 18.3466 8.65907 18.3466V18.1262L8.66007 18.3466C8.84097 18.3466 9.01124 18.2763 9.13995 18.1482L9.47778 17.81C9.64283 17.645 9.86229 17.5541 10.0957 17.5541C10.1108 17.5541 10.1261 17.5545 10.1415 17.5553C10.3264 17.5647 10.5099 17.5354 10.6817 17.4691C10.855 17.4027 11.0095 17.3024 11.1411 17.1711L13.6527 14.66L14.5038 13.8092C14.6398 13.9424 14.819 14.0158 15.0095 14.0158C15.2019 14.0158 15.3833 13.9407 15.5206 13.8041C15.8005 13.524 15.802 13.0697 15.5254 12.7878L18.437 9.87699C18.702 9.61218 18.8479 9.26009 18.8479 8.88558ZM10.8276 16.8576C10.7404 16.9447 10.6379 17.0112 10.5226 17.0554C10.4221 17.0941 10.3164 17.1138 10.2084 17.1138C10.1936 17.1138 10.1788 17.1134 10.1643 17.1127C10.1415 17.1115 10.1185 17.1109 10.0957 17.1109C9.74387 17.1109 9.41305 17.2479 9.16417 17.4967L8.82666 17.8345C8.78205 17.8789 8.72289 17.9033 8.65958 17.9033L8.65907 18.1227V17.9033C8.59599 17.9033 8.53676 17.8784 8.49234 17.8333C8.40236 17.7416 8.40679 17.5893 8.50211 17.4939L8.83186 17.1642C8.96325 17.0329 9.06353 16.8784 9.12977 16.7056C9.19702 16.5316 9.22603 16.3483 9.21591 16.1605C9.20258 15.9173 9.29564 15.6772 9.47128 15.5017L10.2481 14.7249H12.9608L10.8276 16.8576ZM13.4042 14.2817H10.6917L12.8337 12.1399L14.1902 13.4959L13.4042 14.2817ZM15.2073 13.4904C15.1541 13.5434 15.0839 13.5725 15.0096 13.5725C14.935 13.5725 14.8648 13.5434 14.8121 13.4908L14.6617 13.3404L14.6606 13.3391L13.2507 11.9299L12.9906 11.6698L12.8389 11.518C12.7861 11.4654 12.7571 11.3953 12.7571 11.3208C12.7571 11.2462 12.7862 11.176 12.8389 11.1232C12.8916 11.0705 12.9617 11.0415 13.0364 11.0415C13.1109 11.0415 13.181 11.0705 13.2336 11.1232L13.4435 11.333L13.9186 11.808L15.207 13.096C15.3158 13.2048 15.3158 13.3819 15.2073 13.4904ZM18.1235 9.56353L15.2121 12.4742L14.9989 12.2612L13.8557 11.1182L16.7674 8.20762C16.9485 8.02651 17.1893 7.92679 17.4455 7.92679C17.7016 7.92679 17.9424 8.02651 18.1235 8.20764C18.3047 8.38872 18.4045 8.62949 18.4045 8.88556C18.4045 9.14163 18.3047 9.38244 18.1235 9.56353Z" fill="black"/>
<path d="M18.1235 9.56353L15.2121 12.4742L14.9989 12.2612L13.8557 11.1182L16.7674 8.20762C16.9485 8.02651 17.1893 7.92679 17.4455 7.92679C17.7016 7.92679 17.9424 8.02651 18.1235 8.20764C18.3047 8.38872 18.4045 8.62949 18.4045 8.88556C18.4045 9.14163 18.3047 9.38244 18.1235 9.56353Z" fill="white"/>
<path d="M10.8276 16.8576C10.7404 16.9447 10.6379 17.0112 10.5226 17.0554C10.4221 17.0941 10.3164 17.1138 10.2084 17.1138C10.1936 17.1138 10.1788 17.1134 10.1643 17.1127C10.1415 17.1115 10.1185 17.1109 10.0957 17.1109C9.74387 17.1109 9.41305 17.2479 9.16417 17.4967L8.82666 17.8345C8.78205 17.8789 8.72289 17.9033 8.65958 17.9033L8.65907 18.1227V17.9033C8.59599 17.9033 8.53676 17.8784 8.49234 17.8333C8.40236 17.7416 8.40679 17.5893 8.50211 17.4939L8.83186 17.1642C8.96325 17.0329 9.06353 16.8784 9.12977 16.7056C9.19702 16.5316 9.22603 16.3483 9.21591 16.1605C9.20258 15.9173 9.29564 15.6772 9.47128 15.5017L10.2481 14.7249H12.9608L10.8276 16.8576Z" fill="#7EC7E6"/>
</svg>
